<svg xmlns="http://www.w3.org/2000/svg" width="40" height="40" viewBox="0 0 40 40">
  <!-- Person -->
  <g fill="#B1E5F5">
    <path d="M4.73 1.134a6.816 6.816 0 0 0 5.6 2.474c4.154.069 5.366-2.781 6.082-2.474 4.2 1.716 4.581 6.859 4.588 8.894S21 16 21 16c0 1.1-6.42 5.02-10.67 5.02S0 17.1 0 16c0 0-.065-3.868 0-5.972S-.02 2.868 4.73 1.134Z" transform="translate(10 17)"/>
    <circle cx="20.5" cy="12.5" r="6.5"/>
  </g>

  <!-- Money icon: slightly smaller -->
  <g transform="translate(10.4 20.8) scale(0.84)">
    <path fill="#C1FF67" d="M22.873 8.845 15.595 14.609 0 5.672 7.33 0Z"/>
    <path fill="#72AB5E" d="M0 5.598v5.775l15.451 9.013v-6.094Z"/>
    <path fill="#9ADF4B" d="M15.455 20.386 22.79 14.257l.1-5.425-7.436 5.425Z"/>
    <ellipse cx="10.991" cy="7.08" rx="4.686" ry="2.343" fill="#458100"/>
  </g>
</svg>

