<svg xmlns="http://www.w3.org/2000/svg" width="40" height="40" viewBox="0 0 40 40">
  <g fill="#B1E5F5">
    <path d="M4.73 1.134a6.816 6.816 0 0 0 5.6 2.474c4.154.069 5.366-2.781 6.082-2.474 4.2 1.716 4.581 6.859 4.588 8.894S21 16 21 16c0 1.1-6.42 5.02-10.67 5.02S0 17.1 0 16c0 0-.065-3.868 0-5.972S-.02 2.868 4.73 1.134Z" transform="translate(10 17)"/>
    <circle cx="20.5" cy="12.5" r="6.5"/>
  </g>

  <g transform="translate(15.2 21.6) scale(1.3)" fill="#72AB5E">
    <path d="M6.125-14.542a3.349 3.349 0 0 0 3.159-1.605L8.014-17.166a2.009 2.009 0 0 1-1.888 1.019c-1.907 0-2.143-1.326-2.208-2.516.093-1.11.166-2.533 2.208-2.533a2.008 2.008 0 0 1 1.888.836L9.2-21.35a3.285 3.285 0 0 0-3.078-1.434 3.8 3.8 0 0 0-3.949 4.121C2.176-16.637 3.238-14.542 6.125-14.542Z" transform="translate(-2.176 24.519)"/>
    <rect x="3.245" y="0" width="1.425" height="2.374"/>
    <rect x="3.245" y="9.022" width="1.425" height="2.374"/>
  </g>
</svg>
