<svg xmlns="http://www.w3.org/2000/svg"
     width="100%"
     height="100%"
     viewBox="0 0 40 40">

  <!-- Main district shape only: real clockwise turn, slightly enlarged -->
  <g transform="translate(20 20) rotate(28) scale(1.08) translate(-20 -20)">
    <path
      d="M733.5-302.422l17.411,15.436L767.1-297.967v-1.62l-33.595-4.44Z"
      transform="translate(-731 321.306)"
      fill="#979799"/>

    <path
      d="M1223.5-1133.647l17.382,14.892,16.223-10.511-17.525-14.714Z"
      transform="translate(-1221 1150.886)"
      fill="#B8BCC2"/>

    <path
      d="M11.695-90.083v-8.488L5.68-94.9l5.561,4.45Z"
      transform="translate(1 112)"
      fill="#60646A"/>

    <path
      d="M13.445-89.17v-4.547l17.794,3.361L19.178-83.04Z"
      transform="translate(1 112)"
      fill="#60646A"/>

    <path
      d="M13.445-98.571l4.35-2.857,11.467,8.7L13.445-95.892Z"
      transform="translate(1 112)"
      fill="#60646A"/>
  </g>

  <!-- Chatbox stays horizontal / not rotated -->
  <path
    fill="#FFFFFF"
    d="M2,0H18a2,2,0,0,1,2,2V6a2,2,0,0,1-2,2H9.094L4.939,10.815V8H2A2,2,0,0,1,0,6V2A2,2,0,0,1,2,0Z"
    transform="translate(15 9.185)"/>

  <rect
    width="12"
    height="2"
    fill="#6B6B6B"
    transform="translate(19 12.185)"/>
</svg>