<svg xmlns="http://www.w3.org/2000/svg" viewBox="0 0 24 24">
  <path d="M12 2.6l2.88 5.84 6.45.94-4.67 4.55 1.1 6.43L12 17.33l-5.76 3.03 1.1-6.43-4.67-4.55 6.45-.94L12 2.6z" fill="#5fb8ff" fill-opacity="0.12"/>
  <path d="M12 2.6l2.88 5.84 6.45.94-4.67 4.55 1.1 6.43L12 17.33l-5.76 3.03 1.1-6.43-4.67-4.55 6.45-.94L12 2.6z" fill="none" stroke="#5fb8ff" stroke-width="1.65" stroke-linecap="round" stroke-linejoin="round"/>
  <g transform="translate(12 12) scale(0.9) translate(-12 -12)">
    <path d="M12 2.6l2.88 5.84 6.45.94-4.67 4.55 1.1 6.43L12 17.33l-5.76 3.03 1.1-6.43-4.67-4.55 6.45-.94L12 2.6z" fill="none" stroke="#5fb8ff" stroke-width="1.25" stroke-linecap="round" stroke-linejoin="round" stroke-opacity="0.72"/>
  </g>
</svg>
