<svg xmlns="http://www.w3.org/2000/svg"
     viewBox="0 0 64 64"
     width="100%"
     height="100%">

  <!-- Road / base shapes -->
  <path
    fill="#C4C4C4"
    d="M3.337,19.35 29.545,56.214 59.581,46.675 60.036,44.848 3.911,17.046Z"/>

  <path
    fill="#D4D4D4"
    d="M4.547,17.029 35.503,51.516 54.545,46.443 29.398,9.329Z"/>

  <path
    fill="#949494"
    d="M3.876,17.027 30.454,53.661 44.532,49.462 17.795,12.772Z"/>

  <path
    fill="#949494"
    d="M19.438,12.4 46.016,49.034 60.094,44.835 33.357,8.145Z"/>

  <!-- White arrows: longer and wider -->
  <path
    fill="#FFFFFF"
    d="M17.905,22.298 16.99,31.452 19.92,30.678 26.936,41.148 31.664,39.795 24.759,29.634 28.14,28.691Z"/>

  <path
    fill="#FFFFFF"
    d="M31.948,18.626 31.032,27.78 33.963,27.006 40.978,37.476 45.706,36.123 38.801,25.962 42.183,25.019Z"/>

</svg>